<svg xmlns="http://www.w3.org/2000/svg" width="1200" height="630" viewBox="0 0 1200 630">
  <defs>
    <linearGradient id="bg" x1="0%" y1="0%" x2="100%" y2="100%">
      <stop offset="0%" style="stop-color:#1a1a2e"/>
      <stop offset="100%" style="stop-color:#16213e"/>
    </linearGradient>
    <linearGradient id="sword" x1="0%" y1="0%" x2="100%" y2="100%">
      <stop offset="0%" style="stop-color:#c41e3a"/>
      <stop offset="100%" style="stop-color:#8b0000"/>
    </linearGradient>
  </defs>

  <!-- Background -->
  <rect width="1200" height="630" fill="url(#bg)"/>

  <!-- Decorative border -->
  <rect x="20" y="20" width="1160" height="590" fill="none" stroke="#c41e3a" stroke-width="3" rx="10"/>

  <!-- Crossed swords icon -->
  <g transform="translate(540, 120) scale(2.5)">
    <path fill="url(#sword)" d="M6.2 2L2 6.2l1.5 1.5 4.2-4.2L9.2 5l-4.2 4.2 1.5 1.5 4.2-4.2 1.5 1.5-4.2 4.2 1.5 1.5L14 9.5l1.5 1.5-4.2 4.2 1.5 1.5L17 12.5l1.5 1.5-3.5 3.5 1.4 1.4L22 13.2 13.2 22l-5.6-1.4 1.4 1.4 3.5-3.5 1.5 1.5-4.2 4.2z"/>
    <path fill="url(#sword)" d="M17.8 2L22 6.2l-1.5 1.5-4.2-4.2L14.8 5l4.2 4.2-1.5 1.5-4.2-4.2-1.5 1.5 4.2 4.2-1.5 1.5L10 9.5 8.5 11l4.2 4.2-1.5 1.5L7 12.5 5.5 14l3.5 3.5-1.4 1.4L2 13.2 10.8 22l5.6-1.4-1.4 1.4-3.5-3.5-1.5 1.5 4.2 4.2z"/>
  </g>

  <!-- Title -->
  <text x="600" y="320" text-anchor="middle" font-family="Georgia, serif" font-size="56" font-weight="bold" fill="#ffffff">
    Peninsular War
  </text>
  <text x="600" y="380" text-anchor="middle" font-family="Georgia, serif" font-size="40" fill="#ffffff">
    Interactive Map
  </text>

  <!-- Subtitle -->
  <text x="600" y="450" text-anchor="middle" font-family="Arial, sans-serif" font-size="28" fill="#c41e3a">
    1807 - 1814
  </text>

  <!-- Stats -->
  <text x="600" y="520" text-anchor="middle" font-family="Arial, sans-serif" font-size="22" fill="#aaaaaa">
    93 Historical Events • Battles • Sieges • Key Moments
  </text>

  <!-- Corner decorations -->
  <circle cx="60" cy="60" r="8" fill="#c41e3a"/>
  <circle cx="1140" cy="60" r="8" fill="#c41e3a"/>
  <circle cx="60" cy="570" r="8" fill="#c41e3a"/>
  <circle cx="1140" cy="570" r="8" fill="#c41e3a"/>
</svg>
